<svg width="53" height="53" viewBox="0 0 53 53" fill="none" xmlns="http://www.w3.org/2000/svg">
<path d="M8.60303 44.9923C8.60303 43.509 9.19227 42.0864 10.2411 41.0376C11.29 39.9887 12.7125 39.3995 14.1958 39.3995H44.397" fill="white"/>
<path d="M14.1958 5.84266H44.397V50.5851H14.1958C12.7125 50.5851 11.29 49.9958 10.2411 48.947C9.19227 47.8981 8.60303 46.4756 8.60303 44.9923V11.4355C8.60303 9.95216 9.19227 8.5296 10.2411 7.48075C11.29 6.4319 12.7125 5.84266 14.1958 5.84266Z" fill="white"/>
<path d="M8.60303 44.9923C8.60303 43.509 9.19227 42.0864 10.2411 41.0376C11.29 39.9887 12.7125 39.3995 14.1958 39.3995H44.397M8.60303 44.9923C8.60303 46.4756 9.19227 47.8981 10.2411 48.947C11.29 49.9958 12.7125 50.5851 14.1958 50.5851H44.397V5.84266H14.1958C12.7125 5.84266 11.29 6.4319 10.2411 7.48075C9.19227 8.5296 8.60303 9.95216 8.60303 11.4355V44.9923Z" stroke="url(#paint0_linear_29_83)" stroke-width="4.47424" stroke-linecap="round" stroke-linejoin="round"/>
<path fill-rule="evenodd" clip-rule="evenodd" d="M15.0457 1.80713C14.4987 1.80713 14.0552 2.47558 14.0552 3.30015V25.6954C14.0552 26.2129 14.2329 26.6934 14.525 26.9655C14.817 27.2375 15.1816 27.2622 15.4887 27.0308L20.989 22.8856L26.4892 27.0308C26.7963 27.2622 27.161 27.2375 27.453 26.9655C27.745 26.6934 27.9228 26.2129 27.9228 25.6954V3.30015C27.9228 2.47558 27.4793 1.80713 26.9322 1.80713H15.0457Z" fill="#4A3A00"/>
<defs>
<linearGradient id="paint0_linear_29_83" x1="13.4718" y1="1.53032" x2="50.3821" y2="36.7888" gradientUnits="userSpaceOnUse">
<stop stop-color="#E7D33A"/>
<stop offset="1" stop-color="#E6A65D"/>
</linearGradient>
</defs>
</svg>
